<?xml version="1.0" standalone="no"?>
<!DOCTYPE svg PUBLIC "-//W3C//DTD SVG 20010904//EN"
 "http://www.w3.org/TR/2001/REC-SVG-20010904/DTD/svg10.dtd">
<svg version="1.0" xmlns="http://www.w3.org/2000/svg"
 width="300.000000pt" height="300.000000pt" viewBox="0 0 300.000000 300.000000"
 preserveAspectRatio="xMidYMid meet">
<metadata>
Created by potrace 1.14, written by Peter Selinger 2001-2017
</metadata>
<g transform="translate(0.000000,300.000000) scale(0.100000,-0.100000)"
fill="#000000" stroke="none">
<path d="M1494 2393 c-21 -54 -40 -100 -42 -103 -2 -2 -25 -5 -51 -6 -51 0
-75 -10 -66 -25 4 -5 1 -9 -4 -9 -6 0 -11 7 -11 15 0 18 8 17 -114 19 -72 1
-103 -2 -113 -12 -7 -8 -11 -18 -8 -23 4 -5 4 -9 0 -9 -3 0 -9 10 -14 23 -8
21 -14 22 -111 22 -90 -1 -104 -3 -117 -20 -14 -20 -15 -20 -28 -1 -12 15 -28
19 -89 20 -41 1 -77 4 -81 8 -4 3 -2 15 4 27 7 11 7 22 2 25 -5 4 -8 17 -6 31
1 14 -2 28 -6 31 -5 3 -9 16 -9 30 0 24 -1 24 -79 23 -65 -1 -81 -4 -84 -18
-4 -14 -5 -14 -6 2 0 9 -8 17 -16 17 -13 0 -20 -19 -16 -43 1 -5 -3 -6 -8 -3
-5 3 -7 15 -4 26 5 17 1 20 -28 17 l-34 -3 0 -64 c0 -36 -3 -69 -6 -75 -6 -10
-5 -36 4 -59 3 -8 28 -13 66 -14 34 0 59 3 56 8 -6 10 41 7 52 -3 3 -4 15 -7
25 -7 19 0 19 5 19 -167 1 -60 -1 -68 -18 -66 -36 4 -79 13 -132 27 l-53 14
24 -22 c13 -13 37 -31 53 -42 30 -19 45 -31 100 -78 l30 -25 -48 14 c-26 8
-47 12 -47 10 0 -2 20 -18 45 -36 40 -29 44 -36 47 -78 2 -38 7 -47 24 -49 21
-3 21 -5 8 -49 -8 -26 -15 -47 -17 -49 -1 -1 -27 -5 -57 -8 -89 -9 -163 -18
-185 -21 -11 -1 -37 -3 -57 -4 -21 0 -38 -4 -38 -9 0 -6 105 -30 200 -46 85
-15 140 -30 129 -36 -12 -7 -117 -19 -191 -23 -37 -2 -15 -14 45 -24 98 -17
130 -23 155 -29 27 -5 65 -75 45 -81 -27 -9 -65 -47 -83 -83 -18 -36 -125
-121 -344 -275 -128 -89 -196 -141 -196 -148 0 -5 4 -5 10 -2 9 6 93 29 142
39 12 3 50 12 83 20 81 20 84 20 41 -9 -67 -45 -148 -107 -144 -110 2 -1 89
19 193 46 105 27 199 51 210 53 20 4 96 23 126 32 13 3 24 -15 49 -85 l32 -90
350 0 c193 1 354 -3 358 -8 5 -4 24 -47 43 -95 20 -48 42 -95 51 -104 9 -8 16
-22 16 -30 0 -37 20 -3 64 111 48 122 50 125 80 125 17 1 168 1 336 1 l305 0
21 67 c12 37 24 77 28 88 7 21 6 21 -200 20 -113 0 -207 1 -210 3 -2 2 29 18
69 35 65 29 81 31 165 30 96 -2 98 0 93 44 -3 17 4 15 51 -15 37 -25 50 -28
134 -29 l94 -1 0 53 c0 29 -4 54 -9 56 -9 3 -35 131 -32 153 1 6 4 36 7 68 6
55 5 57 -18 58 -30 1 -71 8 -76 14 -15 15 15 34 70 45 122 24 225 47 218 50
-18 6 -211 30 -246 30 -37 0 -2 10 136 41 166 36 197 48 130 49 -25 1 -54 3
-65 5 -26 5 -107 15 -169 21 -27 2 -55 9 -63 15 -24 20 -15 56 20 80 17 13 34
26 37 29 3 3 91 70 195 149 105 78 192 147 194 153 2 7 -1 8 -10 2 -8 -5 -16
-9 -19 -10 -19 -3 -72 -18 -107 -29 -49 -16 -55 -7 -17 21 14 10 31 24 38 29
6 6 49 39 96 74 100 75 120 77 -232 -19 -136 -36 -250 -64 -253 -62 -3 3 -5
52 -5 109 0 91 -2 103 -17 104 -10 1 -143 2 -297 3 -267 1 -279 0 -292 -19
-12 -17 -14 -17 -14 -2 0 19 3 18 -104 20 l-79 2 -37 98 c-20 53 -39 100 -42
103 -3 3 -23 -39 -44 -93z m-884 47 c0 -5 -5 -10 -11 -10 -5 0 -7 5 -4 10 3 6
8 10 11 10 2 0 4 -4 4 -10z m-82 -41 c-3 -8 -7 -3 -11 10 -4 17 -3 21 5 13 5
-5 8 -16 6 -23z m82 11 c0 -5 -5 -10 -11 -10 -5 0 -7 5 -4 10 3 6 8 10 11 10
2 0 4 -4 4 -10z m470 -1445 c36 -15 68 -30 72 -33 4 -4 -94 -7 -217 -7 -124 0
-225 3 -225 6 0 4 190 51 255 62 28 5 42 2 115 -28z"/>
</g>
</svg>
